PathFileType	4	(X/Y/Z)	s01c0202.trc
DataRate	CameraRate	NumFrames	NumMarkers	Units	OrigDataRate	OrigDataStartFrame	OrigNumFrames
200	200	5	48	mm	200	1500	2000
Frame#	Time	racr			lacr			c7			jug			rlel			rdr			llel			ldr			s2			lic			ric			lasi			rasi			rpsi			lpsi			rgt			lgt			rth1			rth2			rth3			rth4			rlfc			rsh1			rsh2			rsh3			rsh4			rlmal			rmmal			rcal			rtoe			rmt5			lth1			lth2			lth4			lth3			llfc			lsh1			lsh2			lsh3			lsh4			llmal			lmmal			lcal			ltoe			lmt5			SBIKE			LBIKE			RBIKE			
		X1	Y1	Z1	X2	Y2	Z2	X3	Y3	Z3	X4	Y4	Z4	X5	Y5	Z5	X6	Y6	Z6	X7	Y7	Z7	X8	Y8	Z8	X9	Y9	Z9	X10	Y10	Z10	X11	Y11	Z11	X12	Y12	Z12	X13	Y13	Z13	X14	Y14	Z14	X15	Y15	Z15	X16	Y16	Z16	X17	Y17	Z17	X18	Y18	Z18	X19	Y19	Z19	X20	Y20	Z20	X21	Y21	Z21	X22	Y22	Z22	X23	Y23	Z23	X24	Y24	Z24	X25	Y25	Z25	X26	Y26	Z26	X27	Y27	Z27	X28	Y28	Z28	X29	Y29	Z29	X30	Y30	Z30	X31	Y31	Z31	X32	Y32	Z32	X33	Y33	Z33	X34	Y34	Z34	X35	Y35	Z35	X36	Y36	Z36	X37	Y37	Z37	X38	Y38	Z38	X39	Y39	Z39	X40	Y40	Z40	X41	Y41	Z41	X42	Y42	Z42	X43	Y43	Z43	X44	Y44	Z44	X45	Y45	Z45	X46	Y46	Z46	X47	Y47	Z47	X48	Y48	Z48	
1500	7.5000	495.915611	1294.263483	-100.425460	497.735471	1282.840787	-460.882068	472.342435	1384.042372	-283.038427	470.829439	1221.984442	-280.791925	487.148028	1022.950737	5.915741	674.418307	873.785503	-74.696624	485.019095	1012.793665	-562.807678	657.295283	861.932317	-455.629628	-35.317432	1131.350740	-267.455465	127.254095	1148.551565	-439.342610	120.942349	1144.058854	-113.258748	136.051442	1094.763410	-418.199631	151.246841	1100.375490	-143.347827	-6.982440	1170.665299	-217.110437	-10.662189	1173.152055	-322.606584	79.322020	1024.186296	-82.843673	80.035382	1003.213386	-463.858937	190.062464	941.034002	-65.946863	262.729349	901.883827	-71.519192	339.065571	853.835546	-84.414142	291.180341	949.019342	-84.883781	400.993756	769.324707	-108.772346	307.503353	703.363501	-76.394150	242.226673	648.706218	-80.167722	169.000675	598.907566	-90.022916	271.936094	613.666118	-118.884420	62.391118	537.378892	-107.797593	103.669020	519.487939	-186.668286	10.671048	544.766784	-162.460739	187.727378	339.154217	-142.065821	93.031904	394.636091	-75.466321	161.488744	898.526547	-470.471157	240.882322	856.010814	-472.094556	267.286372	904.144928	-468.901513	311.946037	811.225792	-452.181282	395.341358	727.819102	-433.882458	332.861421	632.091168	-459.982828	314.286528	548.080224	-452.364601	293.517304	465.736058	-436.579359	368.873927	538.854355	-424.633544	261.367440	345.339226	-418.185422	0.000000	0.000000	-0.000000	211.558739	309.811595	-373.284827	489.183210	285.650876	-385.122823	382.563468	265.041586	-447.686747	-230.289653	890.529108	-256.098111	-22.868801	80.299716	-456.493932	-22.907830	80.358353	-56.321449	
1501	7.5050	495.718276	1294.512474	-100.324073	497.646175	1283.329940	-460.434603	472.130792	1384.284971	-282.732147	470.548471	1222.326552	-280.627243	487.122774	1023.021100	5.678754	674.474571	873.834883	-74.755330	485.462482	1013.312467	-562.302756	657.421249	861.855645	-455.303361	-35.386778	1131.636652	-267.675726	127.301094	1149.076773	-439.414615	120.603800	1144.533225	-113.166395	135.932074	1094.975945	-418.303369	151.174866	1100.891152	-143.566613	-7.094247	1170.982806	-217.359209	-10.748910	1173.327824	-322.883064	79.511238	1025.408506	-82.799838	79.342676	1003.175469	-463.860472	191.276892	944.231003	-65.962158	264.528396	906.121225	-71.600985	341.392188	858.771145	-84.474020	291.869163	953.357789	-85.708595	403.946045	774.108866	-109.128355	309.780798	708.843585	-76.966191	244.062239	654.737356	-80.651480	170.607550	605.421527	-90.443959	273.347101	619.159737	-119.779066	63.713269	544.307711	-107.890774	104.702366	526.218619	-187.025603	11.355386	550.588050	-162.725253	190.621132	347.132462	-142.150551	95.354147	401.607497	-75.498896	158.625394	896.613679	-470.670518	236.737048	852.185551	-471.806986	264.341749	899.853836	-469.551891	306.831652	805.828285	-452.730057	390.038608	721.463342	-434.044778	327.837420	625.049159	-460.325318	310.171899	541.340294	-452.462978	289.795724	458.942998	-436.644832	364.668716	532.461983	-424.565540	258.225315	338.201205	-417.971450	0.000000	0.000000	-0.000000	208.734609	302.681377	-372.888387	486.223509	279.185500	-385.101293	379.654968	258.272022	-447.585442	-230.279775	890.558322	-256.139769	-22.870195	80.306788	-456.498851	-22.902028	80.368052	-56.325359	
1502	7.5100	495.521720	1294.739435	-100.202686	497.567710	1283.837477	-459.979370	471.935091	1384.572091	-282.455884	470.268893	1222.608547	-280.481692	487.109691	1023.141311	5.446394	674.531093	873.858499	-74.788620	485.909745	1013.752159	-561.772641	657.576510	861.806559	-454.996780	-35.447448	1131.994225	-268.026403	127.339400	1149.508950	-439.448713	120.347834	1145.095255	-113.138272	135.749119	1095.172282	-418.468539	151.166311	1101.415213	-143.840441	-7.165897	1171.276300	-217.604170	-10.809930	1173.544243	-323.146395	79.762396	1026.792173	-82.681838	78.642266	1003.196081	-463.895134	192.488916	947.339811	-66.199891	266.232913	910.162155	-71.714948	343.661413	863.729245	-84.477188	292.859259	957.671586	-86.283534	406.715985	778.973182	-110.026293	312.035587	714.244094	-77.372845	246.323240	660.536385	-80.957566	172.160014	611.908355	-90.894829	274.941651	624.599723	-120.305036	64.644847	550.691061	-108.711120	105.599767	532.809827	-187.403363	11.979917	556.330781	-163.060105	193.887421	355.163516	-142.361597	97.944380	408.457246	-75.683797	155.703776	894.900666	-470.873702	232.667752	848.798634	-472.037957	261.295927	895.877783	-470.145823	301.713705	801.083266	-452.804648	384.560219	715.406680	-434.197801	323.416246	619.018428	-460.754467	305.771372	534.800658	-452.603250	285.814443	452.294724	-436.660018	360.241604	526.275194	-424.482730	254.880130	331.240145	-417.709338	0.000000	0.000000	-0.000000	205.657940	295.804727	-372.541312	483.005931	272.707258	-385.121001	376.385628	251.672847	-447.609245	-230.290223	890.549585	-256.153756	-22.847203	80.314517	-456.502185	-22.917147	80.372128	-56.334160	
1503	7.5150	495.344658	1295.012182	-100.067197	497.523403	1284.278109	-459.603862	471.795769	1384.859543	-282.170049	469.970577	1222.911365	-280.276204	487.076733	1023.256299	5.256190	674.597568	873.872131	-74.819053	486.305198	1014.172124	-561.302784	657.718945	861.769277	-454.753304	-35.465726	1132.363528	-268.153128	127.364290	1149.821003	-439.496716	120.138491	1145.636099	-113.130434	135.561239	1095.387136	-418.637770	151.187067	1101.937653	-144.130937	-7.220378	1171.573329	-217.810412	-10.821152	1173.746585	-323.400849	80.093386	1028.143936	-82.503062	77.842661	1003.214153	-463.848640	193.623897	950.404722	-66.484942	267.852951	914.153665	-71.905600	345.577620	868.751584	-84.509986	293.737756	961.848095	-87.076844	409.435716	783.796275	-110.396124	314.069864	719.788728	-77.882014	248.076745	666.444909	-81.355518	173.628010	618.268658	-91.312866	276.608975	630.299010	-120.540065	65.520277	556.997353	-108.722285	106.446314	539.249052	-187.794748	12.727085	562.494356	-163.518618	197.296203	363.183376	-142.516309	100.758894	415.198079	-75.770274	152.755473	893.363525	-471.080216	228.543261	845.624742	-472.261006	258.251572	892.006239	-470.639718	296.578881	796.638964	-453.128683	378.915915	709.478149	-434.316035	318.345579	612.730970	-460.936083	300.864858	528.104039	-452.448602	281.618085	445.826002	-436.630820	355.686252	520.156159	-424.425519	251.332952	324.467925	-417.395162	0.000000	0.000000	-0.000000	202.364635	289.130864	-372.165114	479.493770	266.380966	-385.084763	372.940547	245.172935	-447.514616	-230.277249	890.559444	-256.183092	-22.857356	80.320258	-456.516481	-22.909685	80.379802	-56.335074	
1504	7.5200	495.185378	1295.289456	-99.917412	497.526353	1284.736736	-459.222803	471.684237	1385.166051	-281.896034	469.744162	1223.163822	-280.051741	487.080561	1023.352573	5.088156	674.638777	873.887735	-74.840933	486.673793	1014.580180	-560.892657	657.850899	861.732186	-454.541678	-35.459578	1132.710578	-268.126521	127.344444	1150.193851	-439.583601	120.002666	1146.198856	-113.142251	135.367245	1095.534954	-418.782949	151.236205	1102.566973	-144.440388	-7.254107	1171.923566	-217.992019	-10.855819	1173.994231	-323.601169	80.434307	1029.568239	-82.321040	76.976924	1003.231296	-463.829840	194.785010	953.519282	-66.668736	269.465990	918.200501	-71.994983	347.692826	873.680878	-84.519495	294.608174	965.938668	-87.863456	412.090269	788.687241	-110.667458	316.089712	725.276608	-78.187196	249.452730	672.367066	-81.908391	175.137263	624.554012	-91.710942	278.201104	635.880174	-120.744630	66.606695	563.133613	-108.994358	107.385682	545.553010	-188.174436	13.204483	567.190057	-164.060029	201.080871	371.185606	-142.666790	103.748521	421.812265	-75.886021	149.807805	891.977656	-471.290412	224.493036	842.762067	-472.536697	255.129456	888.562772	-471.181985	291.441566	792.523362	-453.554753	373.140103	703.655728	-434.483445	313.075993	606.604821	-461.000364	296.311731	522.245536	-452.741596	277.145873	439.495809	-436.616912	350.857139	514.292350	-424.449419	247.529694	317.960001	-417.082811	0.000000	0.000000	-0.000000	198.858754	282.669276	-371.759849	475.808714	260.018229	-385.085340	369.177643	238.809490	-447.523914	-230.251949	890.569380	-256.210645	-22.869082	80.315061	-456.508477	-22.922494	80.392053	-56.341838	
